<svg width="32" height="32" viewBox="0 0 32 32" fill="none" xmlns="http://www.w3.org/2000/svg">
<path d="M12.4667 22.5067C12.4667 22.6 12.3733 22.6667 12.24 22.6667C12.1067 22.6667 12 22.6667 12 22.5067C12 22.3467 12.1067 22.3467 12.2267 22.3467C12.3467 22.3467 12.4667 22.4134 12.4667 22.5067ZM11.1333 22.3067C11.1333 22.4 11.1333 22.5067 11.32 22.5334C11.3678 22.5563 11.4227 22.5593 11.4726 22.5418C11.5226 22.5243 11.5637 22.4877 11.5867 22.44C11.5867 22.3467 11.5867 22.2534 11.4 22.2134C11.2133 22.1734 11.16 22.2134 11.1333 22.3067ZM13.0267 22.24C12.9067 22.24 12.8267 22.3467 12.84 22.4534C12.8533 22.56 12.96 22.6 13.0933 22.5734C13.2267 22.5467 13.2933 22.4534 13.28 22.36C13.2667 22.2667 13.16 22.2267 13.0267 22.24ZM15.8667 5.33336C14.4605 5.32012 13.0661 5.59111 11.7673 6.13006C10.4684 6.66901 9.2918 7.4648 8.30808 8.4697C7.32435 9.47459 6.55378 10.6679 6.0426 11.9779C5.53143 13.288 5.29018 14.6878 5.33335 16.0934C5.29613 18.3959 5.97899 20.6525 7.28655 22.5482C8.59411 24.4438 10.4611 25.8836 12.6267 26.6667C13.1733 26.76 13.3733 26.4134 13.3733 26.1334V23.4667C13.3733 23.4667 10.36 24.1334 9.72002 22.1334C9.72002 22.1334 9.24002 20.8 8.53335 20.52C8.53335 20.52 7.54668 19.8267 8.60002 19.84C8.94501 19.8865 9.27429 20.0133 9.56142 20.2101C9.84856 20.407 10.0855 20.6684 10.2533 20.9734C10.3929 21.2468 10.5868 21.4889 10.8232 21.6847C11.0596 21.8805 11.3336 22.026 11.6282 22.1121C11.9229 22.1983 12.232 22.2233 12.5367 22.1857C12.8414 22.1481 13.1352 22.0486 13.4 21.8934C13.4505 21.3367 13.6905 20.8142 14.08 20.4134C11.68 20.1334 9.25335 19.7867 9.25335 15.5334C9.22786 15.0529 9.30505 14.5725 9.47978 14.1241C9.65451 13.6758 9.92277 13.2699 10.2667 12.9334C9.94101 11.9575 9.97889 10.8968 10.3734 9.94669C11.28 9.65336 13.3467 11.1334 13.3467 11.1334C15.1122 10.6354 16.9811 10.6354 18.7467 11.1334C18.7467 11.1334 20.8133 9.65336 21.72 9.94669C22.1218 10.8952 22.1598 11.9586 21.8267 12.9334C22.1834 13.2647 22.4663 13.6675 22.6569 14.1155C22.8476 14.5635 22.9418 15.0466 22.9333 15.5334C22.9333 19.8 20.4 20.1334 18 20.4134C18.2412 20.6839 18.4248 21.0008 18.5394 21.3447C18.654 21.6886 18.6973 22.0522 18.6667 22.4134V26.1067C18.6658 26.1967 18.6867 26.2857 18.7275 26.3659C18.7683 26.4462 18.8279 26.5154 18.9012 26.5678C18.9744 26.6201 19.0592 26.654 19.1484 26.6666C19.2376 26.6791 19.3285 26.67 19.4133 26.64C21.575 25.8638 23.4381 24.428 24.7396 22.5356C26.0411 20.6431 26.7152 18.3896 26.6667 16.0934C26.6792 14.6735 26.4081 13.2654 25.8693 11.9516C25.3305 10.6379 24.5348 9.44492 23.5289 8.44273C22.523 7.44054 21.3271 6.64928 20.0114 6.11535C18.6956 5.58141 17.2865 5.31555 15.8667 5.33336ZM9.52002 20.5467V20.7734C9.53488 20.7883 9.55254 20.8001 9.57199 20.8082C9.59144 20.8163 9.61229 20.8204 9.63335 20.8204C9.65441 20.8204 9.67526 20.8163 9.69471 20.8082C9.71416 20.8001 9.73182 20.7883 9.74668 20.7734C9.74668 20.7734 9.74668 20.6267 9.74668 20.5334C9.74668 20.44 9.57335 20.4934 9.52002 20.5467ZM9.05335 20.1867C9.05335 20.1867 9.05335 20.32 9.14668 20.36C9.15793 20.3739 9.17215 20.3852 9.1883 20.3929C9.20445 20.4006 9.22212 20.4046 9.24002 20.4046C9.25791 20.4046 9.27558 20.4006 9.29173 20.3929C9.30788 20.3852 9.3221 20.3739 9.33335 20.36C9.33335 20.36 9.33335 20.2267 9.24002 20.1867C9.14668 20.1467 9.08002 20.1467 9.05335 20.1867ZM10.3867 21.76V22.04C10.3867 22.1334 10.6133 22.1467 10.6667 22.04C10.72 21.9334 10.6667 21.8534 10.6667 21.76C10.6667 21.6667 10.4933 21.6934 10.44 21.76H10.3867ZM9.89335 21.1067V21.3734C9.89335 21.48 10.08 21.52 10.1467 21.48C10.1805 21.4412 10.199 21.3915 10.199 21.34C10.199 21.2886 10.1805 21.2388 10.1467 21.2C10.08 21.0934 9.97335 21.0534 9.89335 21.1067Z" fill="#E5E5E5"/>
</svg>
