<svg width="32" height="32" viewBox="0 0 32 32" fill="none" xmlns="http://www.w3.org/2000/svg">
<path d="M24.96 5.33346H7.15998C6.93055 5.32271 6.70125 5.35731 6.48521 5.4353C6.26917 5.51328 6.07063 5.6331 5.90096 5.78791C5.73128 5.94272 5.59381 6.12948 5.49641 6.33749C5.399 6.54549 5.34358 6.77067 5.33331 7.00012V24.8401C5.34675 25.3203 5.54352 25.7772 5.88322 26.1169C6.22291 26.4566 6.67976 26.6534 7.15998 26.6668H24.96C25.4268 26.646 25.867 26.4431 26.186 26.1016C26.505 25.7602 26.6776 25.3073 26.6666 24.8401V7.00012C26.6705 6.7768 26.6286 6.55504 26.5437 6.34846C26.4587 6.14188 26.3325 5.95482 26.1727 5.79877C26.0129 5.64271 25.8229 5.52094 25.6144 5.44093C25.4058 5.36092 25.1832 5.32434 24.96 5.33346ZM12 23.1201H8.89331V13.6135H12V23.1201ZM10.52 12.1735C10.3032 12.181 10.0872 12.1437 9.88552 12.0637C9.68386 11.9838 9.50091 11.8631 9.34815 11.709C9.19539 11.555 9.07613 11.3711 8.99785 11.1688C8.91958 10.9665 8.88399 10.7502 8.89331 10.5335C8.88373 10.3144 8.92004 10.0957 8.99991 9.89155C9.07979 9.68734 9.20147 9.50209 9.35714 9.34767C9.51281 9.19325 9.69905 9.07308 9.90389 8.99486C10.1087 8.91664 10.3277 8.8821 10.5466 8.89346C10.7634 8.8859 10.9794 8.92326 11.1811 9.00318C11.3828 9.0831 11.5657 9.20386 11.7185 9.35787C11.8712 9.51188 11.9905 9.69582 12.0688 9.89812C12.147 10.1004 12.1826 10.3167 12.1733 10.5335C12.1829 10.7525 12.1466 10.9712 12.0667 11.1754C11.9868 11.3796 11.8652 11.5648 11.7095 11.7192C11.5538 11.8737 11.3676 11.9938 11.1627 12.0721C10.9579 12.1503 10.739 12.1848 10.52 12.1735ZM23.12 23.1201H20V17.9201C20 16.6801 19.56 15.8268 18.4533 15.8268C18.1095 15.8298 17.7751 15.939 17.4958 16.1395C17.2165 16.34 17.0061 16.622 16.8933 16.9468C16.8055 17.19 16.7692 17.4488 16.7866 17.7068V23.1201H13.72V13.6135H16.7866V14.9468C17.0593 14.4459 17.4651 14.0301 17.9592 13.7454C18.4534 13.4607 19.0166 13.3181 19.5866 13.3335C21.6 13.3335 23.12 14.6668 23.12 17.5068V23.1201Z" fill="#E5E5E5"/>
</svg>
