<svg width="32" height="32" viewBox="0 0 32 32" fill="none" xmlns="http://www.w3.org/2000/svg">
<path d="M23.4666 8.4269C22.4892 7.44213 21.3258 6.66152 20.0439 6.13047C18.7621 5.59942 17.3875 5.32854 16 5.33356C14.1451 5.33537 12.3233 5.82449 10.7169 6.75193C9.11057 7.67937 7.77608 9.01258 6.8471 10.618C5.91812 12.2235 5.42725 14.0449 5.42366 15.8997C5.42007 17.7546 5.90389 19.5779 6.82665 21.1869L5.33331 26.6669L10.9333 25.2002C12.479 26.0621 14.2169 26.5207 15.9866 26.5336C18.7995 26.5337 21.4986 25.4227 23.4963 23.4424C25.494 21.4622 26.6287 18.773 26.6533 15.9602C26.6439 14.5566 26.3576 13.1687 25.8108 11.876C25.2639 10.5832 24.4673 9.41116 23.4666 8.4269ZM16 24.7069C14.4237 24.7066 12.8765 24.283 11.52 23.4802L11.2 23.2802L7.87998 24.1602L8.75998 20.9202L8.54665 20.5869C7.41231 18.7558 6.98897 16.5722 7.35681 14.4499C7.72465 12.3275 8.85813 10.4138 10.5425 9.0712C12.2269 7.72862 14.3452 7.05044 16.4962 7.16514C18.6471 7.27985 20.6813 8.17946 22.2133 9.69356C23.888 11.3312 24.8467 13.5649 24.88 15.9069C24.8589 18.2481 23.914 20.4863 22.251 22.1344C20.5879 23.7824 18.3413 24.707 16 24.7069ZM20.8133 18.1202C20.5466 17.9869 19.2533 17.3469 19.0133 17.2669C18.7733 17.1869 18.5866 17.1336 18.4133 17.4002C18.1525 17.7577 17.872 18.1004 17.5733 18.4269C17.4266 18.6136 17.2666 18.6269 17 18.4269C15.4796 17.8261 14.2129 16.7194 13.4133 15.2936C13.1333 14.8269 13.68 14.8536 14.1866 13.8536C14.224 13.7815 14.2436 13.7014 14.2436 13.6202C14.2436 13.539 14.224 13.459 14.1866 13.3869C14.1866 13.2536 13.5866 11.9469 13.3733 11.4269C13.16 10.9069 12.9466 10.9869 12.7733 10.9736H12.2533C12.1184 10.9748 11.9854 11.0052 11.8634 11.0627C11.7414 11.1203 11.6334 11.2036 11.5466 11.3069C11.2482 11.5983 11.0153 11.9501 10.8635 12.3386C10.7118 12.7272 10.6447 13.1437 10.6666 13.5602C10.7487 14.558 11.1245 15.5092 11.7466 16.2936C12.8834 17.9942 14.4404 19.3721 16.2666 20.2936C17.2246 20.8528 18.338 21.0867 19.44 20.9602C19.8069 20.8874 20.1545 20.7382 20.46 20.5222C20.7655 20.3063 21.0222 20.0285 21.2133 19.7069C21.392 19.3149 21.4478 18.8779 21.3733 18.4536C21.2533 18.3202 21.08 18.2536 20.8133 18.1202Z" fill="#E5E5E5"/>
</svg>
